<svg width="24" height="24" viewBox="0 0 24 24" fill="none" xmlns="http://www.w3.org/2000/svg">
<path d="M8.3844 2.47912C8.90949 2.3208 9.47298 2.34711 9.98104 2.55365C10.4891 2.7602 10.9111 3.13453 11.1768 3.61432L11.2656 3.79312L12.06 5.55832C12.3011 6.09411 12.3793 6.68894 12.285 7.26885C12.1907 7.84876 11.928 8.38814 11.5296 8.81992L11.37 8.97832L10.1184 10.1459C9.8928 10.3595 10.062 11.1863 10.878 12.5999C11.6124 13.8719 12.21 14.4659 12.504 14.4983H12.5556L12.6192 14.4863L15.0792 13.7339C15.4098 13.6325 15.7626 13.6285 16.0955 13.7224C16.4283 13.8162 16.7271 14.004 16.956 14.2631L17.0652 14.4011L18.6936 16.6571C19.0127 17.0993 19.1718 17.637 19.1445 18.1817C19.1172 18.7263 18.9053 19.2454 18.5436 19.6535L18.3972 19.8047L17.7468 20.4215C17.1628 20.9746 16.4322 21.3484 15.6419 21.4984C14.8516 21.6483 14.0349 21.5682 13.2888 21.2675C10.9668 20.3315 8.85719 18.1931 6.94079 14.8739C5.02079 11.5463 4.2228 8.64592 4.5792 6.16192C4.68704 5.41104 4.99624 4.70339 5.47396 4.11412C5.95167 3.52485 6.58006 3.07596 7.2924 2.81512L7.524 2.73832L8.3844 2.47912Z" fill="#008676"/>
</svg>
