<svg width="28" height="36" viewBox="0 0 28 36" fill="none" xmlns="http://www.w3.org/2000/svg">
<path d="M20.4286 3.85712H24.2857C24.9677 3.85712 25.6218 4.12803 26.104 4.61027C26.5863 5.09251 26.8572 5.74656 26.8572 6.42855V32.1428C26.8572 32.8248 26.5863 33.4789 26.104 33.9611C25.6218 34.4433 24.9677 34.7143 24.2857 34.7143H3.71431C3.03233 34.7143 2.37827 34.4433 1.89604 33.9611C1.4138 33.4789 1.14288 32.8248 1.14288 32.1428V6.42855C1.14288 5.74656 1.4138 5.09251 1.89604 4.61027C2.37827 4.12803 3.03233 3.85712 3.71431 3.85712H7.57146" stroke="white" stroke-width="2" stroke-linecap="round" stroke-linejoin="round"/>
<path d="M17.8572 1.28571H10.1429C8.72274 1.28571 7.57147 2.43697 7.57147 3.85713V5.14285C7.57147 6.56301 8.72274 7.71428 10.1429 7.71428H17.8572C19.2773 7.71428 20.4286 6.56301 20.4286 5.14285V3.85713C20.4286 2.43697 19.2773 1.28571 17.8572 1.28571Z" stroke="white" stroke-width="2" stroke-linecap="round" stroke-linejoin="round"/>
<path d="M14 15.4286V25.7143M19.1429 20.5714H8.85718" stroke="white" stroke-width="2" stroke-linecap="round" stroke-linejoin="round"/>
</svg>
