<svg width="20" height="20" viewBox="0 0 20 20" fill="none" xmlns="http://www.w3.org/2000/svg">
<path d="M6.14998 0.833336H13.85C16.7833 0.833336 19.1666 3.21667 19.1666 6.15V13.85C19.1666 15.2601 18.6065 16.6124 17.6094 17.6095C16.6124 18.6065 15.26 19.1667 13.85 19.1667H6.14998C3.21665 19.1667 0.833313 16.7833 0.833313 13.85V6.15C0.833313 4.73994 1.39346 3.38762 2.39053 2.39055C3.3876 1.39348 4.73991 0.833336 6.14998 0.833336ZM5.96665 2.66667C5.09143 2.66667 4.25206 3.01435 3.63319 3.63322C3.01432 4.25209 2.66665 5.09145 2.66665 5.96667V14.0333C2.66665 15.8575 4.14248 17.3333 5.96665 17.3333H14.0333C14.9085 17.3333 15.7479 16.9857 16.3668 16.3668C16.9856 15.7479 17.3333 14.9086 17.3333 14.0333V5.96667C17.3333 4.1425 15.8575 2.66667 14.0333 2.66667H5.96665ZM14.8125 4.04167C15.1164 4.04167 15.4078 4.16239 15.6227 4.37728C15.8376 4.59216 15.9583 4.88361 15.9583 5.1875C15.9583 5.4914 15.8376 5.78284 15.6227 5.99773C15.4078 6.21261 15.1164 6.33334 14.8125 6.33334C14.5086 6.33334 14.2171 6.21261 14.0023 5.99773C13.7874 5.78284 13.6666 5.4914 13.6666 5.1875C13.6666 4.88361 13.7874 4.59216 14.0023 4.37728C14.2171 4.16239 14.5086 4.04167 14.8125 4.04167ZM9.99998 5.41667C11.2156 5.41667 12.3813 5.89955 13.2409 6.7591C14.1004 7.61864 14.5833 8.78443 14.5833 10C14.5833 11.2156 14.1004 12.3814 13.2409 13.2409C12.3813 14.1005 11.2156 14.5833 9.99998 14.5833C8.7844 14.5833 7.61862 14.1005 6.75907 13.2409C5.89953 12.3814 5.41665 11.2156 5.41665 10C5.41665 8.78443 5.89953 7.61864 6.75907 6.7591C7.61862 5.89955 8.7844 5.41667 9.99998 5.41667ZM9.99998 7.25C9.27063 7.25 8.57116 7.53973 8.05544 8.05546C7.53971 8.57118 7.24998 9.27066 7.24998 10C7.24998 10.7293 7.53971 11.4288 8.05544 11.9445C8.57116 12.4603 9.27063 12.75 9.99998 12.75C10.7293 12.75 11.4288 12.4603 11.9445 11.9445C12.4602 11.4288 12.75 10.7293 12.75 10C12.75 9.27066 12.4602 8.57118 11.9445 8.05546C11.4288 7.53973 10.7293 7.25 9.99998 7.25Z" fill="white"/>
</svg>
