<svg width="22" height="22" viewBox="0 0 22 22" fill="none" xmlns="http://www.w3.org/2000/svg">
<path d="M20.5883 5.49984C19.8825 5.82067 19.1217 6.0315 18.3333 6.13234C19.14 5.6465 19.7633 4.8765 20.0567 3.95067C19.2958 4.409 18.4525 4.72984 17.5633 4.91317C16.8392 4.12484 15.8217 3.6665 14.6667 3.6665C12.5125 3.6665 10.7525 5.4265 10.7525 7.599C10.7525 7.91067 10.7892 8.21317 10.8533 8.49734C7.59002 8.33234 4.68418 6.76484 2.75002 4.39067C2.41085 4.96817 2.21835 5.6465 2.21835 6.3615C2.21835 7.72734 2.90585 8.93734 3.96918 9.62484C3.31835 9.62484 2.71335 9.4415 2.18168 9.1665V9.194C2.18168 11.1007 3.53835 12.6957 5.33502 13.0532C4.75818 13.211 4.1526 13.233 3.56585 13.1173C3.81482 13.8988 4.30242 14.5825 4.96011 15.0725C5.6178 15.5625 6.41251 15.8341 7.23252 15.849C5.84251 16.9494 4.11951 17.5442 2.34668 17.5357C2.03502 17.5357 1.72335 17.5173 1.41168 17.4807C3.15335 18.599 5.22502 19.2498 7.44335 19.2498C14.6667 19.2498 18.6358 13.2548 18.6358 8.05734C18.6358 7.88317 18.6358 7.71817 18.6267 7.544C19.3967 6.994 20.0567 6.29734 20.5883 5.49984Z" fill="#008676"/>
</svg>
