<svg width="22" height="22" viewBox="0 0 22 22" fill="none" xmlns="http://www.w3.org/2000/svg">
<path d="M20.5883 5.5C19.8825 5.82083 19.1217 6.03166 18.3333 6.1325C19.14 5.64666 19.7633 4.87666 20.0567 3.95083C19.2958 4.40916 18.4525 4.73 17.5633 4.91333C16.8392 4.125 15.8217 3.66666 14.6667 3.66666C12.5125 3.66666 10.7525 5.42666 10.7525 7.59916C10.7525 7.91083 10.7892 8.21333 10.8533 8.4975C7.59002 8.3325 4.68418 6.765 2.75002 4.39083C2.41085 4.96833 2.21835 5.64666 2.21835 6.36166C2.21835 7.7275 2.90585 8.9375 3.96918 9.625C3.31835 9.625 2.71335 9.44166 2.18168 9.16666V9.19416C2.18168 11.1008 3.53835 12.6958 5.33502 13.0533C4.75818 13.2112 4.1526 13.2332 3.56585 13.1175C3.81482 13.8989 4.30242 14.5827 4.96011 15.0727C5.6178 15.5627 6.41251 15.8342 7.23252 15.8492C5.84251 16.9496 4.11951 17.5444 2.34668 17.5358C2.03502 17.5358 1.72335 17.5175 1.41168 17.4808C3.15335 18.5992 5.22502 19.25 7.44335 19.25C14.6667 19.25 18.6358 13.255 18.6358 8.0575C18.6358 7.88333 18.6358 7.71833 18.6267 7.54416C19.3967 6.99416 20.0567 6.2975 20.5883 5.5Z" fill="white"/>
</svg>
