<svg width="12" height="16" viewBox="0 0 12 16" fill="none" xmlns="http://www.w3.org/2000/svg">
<path d="M3.2883 0.859397C3.68213 0.740657 4.10474 0.760384 4.48579 0.915293C4.86684 1.0702 5.18334 1.35095 5.3826 1.7108L5.4492 1.8449L6.045 3.1688C6.22582 3.57063 6.28452 4.01676 6.21379 4.45169C6.14306 4.88662 5.94603 5.29116 5.6472 5.615L5.5275 5.7338L4.5888 6.6095C4.4196 6.7697 4.5465 7.3898 5.1585 8.45C5.7093 9.404 6.1575 9.8495 6.378 9.8738H6.4167L6.4644 9.8648L8.3094 9.3005C8.55736 9.22445 8.82198 9.22144 9.07161 9.29183C9.32123 9.36222 9.5453 9.50302 9.717 9.6974L9.7989 9.8009L11.0202 11.4929C11.2596 11.8245 11.3788 12.2278 11.3584 12.6363C11.3379 13.0448 11.179 13.4341 10.9077 13.7402L10.7979 13.8536L10.3101 14.3162C9.87207 14.731 9.32413 15.0113 8.73141 15.1238C8.1387 15.2363 7.52616 15.1762 6.9666 14.9507C5.2251 14.2487 3.6429 12.6449 2.2056 10.1555C0.765604 7.6598 0.167104 5.4845 0.434404 3.6215C0.51529 3.05834 0.74719 2.5276 1.10548 2.08564C1.46376 1.64369 1.93505 1.30702 2.4693 1.1114L2.643 1.0538L3.2883 0.859397Z" fill="white"/>
</svg>
